<?xml version="1.0" encoding="utf-8"?>
<!-- Generator: Adobe Illustrator 22.0.1, SVG Export Plug-In . SVG Version: 6.00 Build 0)  -->
<svg version="1.1" id="Layer_1" xmlns="http://www.w3.org/2000/svg" xmlns:xlink="http://www.w3.org/1999/xlink" x="0px" y="0px"
	 viewBox="0 0 160 50" style="enable-background:new 0 0 160 50;" xml:space="preserve">
<style type="text/css">
	.st0{fill:#00B67A;}
	.st1{fill:#005128;}
</style>
<path d="M42.8,19.1h15.9v3h-6.3v16.7H49V22.1h-6.2L42.8,19.1z M58,24.6H61v2.8H61c0.1-0.4,0.3-0.8,0.6-1.1c0.3-0.4,0.6-0.7,1-1
	c0.4-0.3,0.8-0.6,1.3-0.7c0.4-0.2,0.9-0.3,1.4-0.3c0.4,0,0.6,0,0.8,0c0.1,0,0.3,0.1,0.4,0.1v3c-0.2-0.1-0.4-0.1-0.7-0.1
	s-0.4-0.1-0.7-0.1c-0.5,0-1,0.1-1.5,0.3s-0.9,0.5-1.2,0.9c-0.3,0.4-0.6,0.9-0.8,1.5c-0.2,0.6-0.3,1.3-0.3,2.1v6.8H58L58,24.6z
	 M80.8,38.8h-3.1v-2h-0.1c-0.4,0.7-1,1.3-1.7,1.7c-0.8,0.4-1.5,0.7-2.3,0.7c-1.9,0-3.2-0.4-4.1-1.4c-0.8-0.9-1.3-2.3-1.3-4.2v-9h3.1
	v8.7c0,1.3,0.2,2.2,0.7,2.6c0.5,0.5,1.2,0.8,2,0.8c0.7,0,1.2-0.1,1.7-0.3c0.4-0.2,0.8-0.5,1.1-0.8c0.3-0.3,0.5-0.8,0.6-1.2
	c0.1-0.5,0.2-1,0.2-1.5v-8.3h3.1L80.8,38.8L80.8,38.8z M86.1,34.2c0.1,0.9,0.4,1.5,1,1.9c0.6,0.4,1.3,0.6,2.2,0.6c0.3,0,0.6,0,1-0.1
	c0.4-0.1,0.7-0.1,1-0.3c0.3-0.1,0.6-0.3,0.8-0.6c0.2-0.3,0.3-0.6,0.3-1c0-0.4-0.2-0.7-0.4-1c-0.3-0.3-0.6-0.4-1-0.6
	c-0.4-0.2-0.9-0.3-1.5-0.4c-0.6-0.1-1.1-0.2-1.7-0.4s-1.2-0.3-1.7-0.5c-0.6-0.2-1-0.4-1.5-0.8c-0.4-0.3-0.8-0.7-1-1.2
	c-0.3-0.5-0.4-1.1-0.4-1.8c0-0.8,0.2-1.4,0.6-1.9c0.4-0.5,0.9-0.9,1.4-1.3c0.6-0.3,1.2-0.6,1.9-0.7c0.7-0.1,1.4-0.2,2-0.2
	c0.7,0,1.4,0.1,2.1,0.2s1.3,0.4,1.8,0.8c0.6,0.3,1,0.8,1.3,1.4c0.4,0.6,0.6,1.2,0.7,2h-3.3c-0.2-0.8-0.5-1.3-1-1.5
	c-0.6-0.3-1.2-0.4-1.9-0.4c-0.2,0-0.5,0-0.8,0.1c-0.3,0.1-0.6,0.1-0.9,0.2c-0.3,0.1-0.5,0.3-0.7,0.4c-0.2,0.2-0.3,0.4-0.3,0.8
	c0,0.4,0.1,0.7,0.4,0.9c0.3,0.2,0.6,0.4,1,0.6c0.4,0.2,0.9,0.3,1.5,0.4c0.6,0.1,1.1,0.2,1.7,0.4s1.1,0.3,1.7,0.5
	c0.6,0.2,1,0.4,1.5,0.8c0.4,0.3,0.8,0.7,1,1.2c0.3,0.5,0.4,1.1,0.4,1.8c0,0.8-0.2,1.5-0.6,2.2c-0.4,0.6-0.9,1.1-1.5,1.4
	c-0.6,0.4-1.3,0.6-2,0.8c-0.8,0.2-1.5,0.3-2.2,0.3c-0.9,0-1.7-0.1-2.5-0.3c-0.8-0.2-1.4-0.5-2-0.9c-0.6-0.4-1-0.9-1.3-1.5
	c-0.3-0.6-0.5-1.3-0.5-2.2L86.1,34.2L86.1,34.2L86.1,34.2z M96.5,24.6h2.4v-4.3h3.1v4.3h2.8v2.3H102v7.6c0,0.3,0,0.6,0.1,0.9
	c0,0.2,0.1,0.4,0.2,0.6c0.1,0.2,0.3,0.3,0.4,0.4c0.2,0.1,0.5,0.1,0.8,0.1c0.2,0,0.4,0,0.7,0s0.4-0.1,0.7-0.1v2.4
	c-0.3,0.1-0.7,0.1-1,0.1c-0.3,0.1-0.7,0.1-1,0.1c-0.8,0-1.5-0.1-2-0.2c-0.5-0.2-0.9-0.4-1.2-0.7c-0.3-0.3-0.5-0.7-0.6-1.1
	c-0.1-0.4-0.2-1-0.2-1.6v-8.4h-2.4L96.5,24.6L96.5,24.6z M107.1,24.6h3v1.9h0.1c0.4-0.8,1-1.4,1.8-1.8c0.8-0.4,1.6-0.6,2.6-0.6
	c1.1,0,2.1,0.2,2.9,0.6c0.8,0.4,1.5,0.9,2.1,1.6c0.6,0.7,1,1.5,1.2,2.4c0.3,0.9,0.4,1.9,0.4,2.9c0,1-0.1,1.9-0.4,2.8
	c-0.3,0.9-0.6,1.7-1.1,2.4c-0.5,0.7-1.1,1.2-1.9,1.7c-0.8,0.4-1.7,0.6-2.7,0.6c-0.4,0-0.9-0.1-1.4-0.1c-0.4-0.1-0.9-0.2-1.3-0.4
	c-0.4-0.2-0.8-0.4-1.2-0.7c-0.4-0.3-0.7-0.6-0.9-1h-0.1v7.1h-3.1L107.1,24.6L107.1,24.6z M118.1,31.7c0-0.6-0.1-1.3-0.3-1.9
	c-0.2-0.6-0.4-1.1-0.8-1.6s-0.8-0.8-1.2-1.1c-0.5-0.3-1.1-0.4-1.7-0.4c-1.3,0-2.3,0.4-3,1.4c-0.7,0.9-1,2.2-1,3.7
	c0,0.7,0.1,1.4,0.3,2c0.2,0.6,0.4,1.1,0.8,1.6c0.3,0.4,0.8,0.8,1.3,1s1,0.4,1.7,0.4c0.7,0,1.3-0.2,1.8-0.4s0.9-0.7,1.2-1.1
	c0.3-0.5,0.6-1,0.7-1.6C118,32.9,118.1,32.3,118.1,31.7z M123.6,19.1h3.1v3h-3.1V19.1z M123.6,24.6h3.1v14.2h-3.1V24.6z M129.6,19.1
	h3.1v19.7h-3.1L129.6,19.1z M142.3,39.2c-1.1,0-2.2-0.2-3-0.6c-0.9-0.4-1.6-0.9-2.3-1.5c-0.6-0.7-1.1-1.5-1.4-2.4
	c-0.3-0.9-0.5-1.9-0.5-3s0.2-2.1,0.5-3c0.3-0.9,0.8-1.7,1.4-2.4c0.6-0.7,1.4-1.2,2.3-1.5c0.9-0.4,1.9-0.6,3-0.6s2.2,0.2,3,0.6
	c0.9,0.4,1.6,0.9,2.3,1.5c0.6,0.7,1.1,1.5,1.4,2.4c0.3,0.9,0.5,1.9,0.5,3c0,1.1-0.2,2.1-0.5,3c-0.3,0.9-0.8,1.7-1.4,2.4
	c-0.6,0.7-1.4,1.2-2.3,1.5S143.5,39.2,142.3,39.2z M142.3,36.7c0.7,0,1.3-0.2,1.8-0.4c0.5-0.3,0.9-0.7,1.3-1.2
	c0.3-0.5,0.6-1,0.7-1.6c0.2-0.6,0.2-1.2,0.2-1.8c0-0.6-0.1-1.2-0.2-1.8c-0.2-0.6-0.4-1.1-0.7-1.6c-0.3-0.5-0.8-0.8-1.3-1.1
	c-0.5-0.3-1.1-0.4-1.8-0.4c-0.7,0-1.3,0.2-1.8,0.4c-0.5,0.3-0.9,0.7-1.3,1.1c-0.3,0.5-0.6,1-0.7,1.6s-0.2,1.2-0.2,1.8
	c0,0.6,0.1,1.2,0.2,1.8c0.2,0.6,0.4,1.1,0.7,1.6s0.8,0.9,1.3,1.2C141,36.6,141.6,36.7,142.3,36.7z M150.4,24.6h2.4v-4.3h3.1v4.3h2.8
	v2.3H156v7.6c0,0.3,0,0.6,0.1,0.9c0,0.2,0.1,0.4,0.2,0.6c0.1,0.2,0.3,0.3,0.4,0.4c0.2,0.1,0.5,0.1,0.8,0.1c0.2,0,0.4,0,0.7,0
	c0.2,0,0.4-0.1,0.7-0.1v2.4c-0.3,0.1-0.7,0.1-1,0.1c-0.3,0.1-0.7,0.1-1,0.1c-0.8,0-1.5-0.1-2-0.2c-0.5-0.2-0.9-0.4-1.2-0.7
	c-0.3-0.3-0.5-0.7-0.6-1.1s-0.2-1-0.2-1.6v-8.4h-2.4V24.6L150.4,24.6z"/>
<path class="st0" d="M39.1,19.1H24.7L20.3,5.4l-4.5,13.7l-14.4,0l11.6,8.5L8.6,41.3l11.6-8.5l11.6,8.5l-4.4-13.7L39.1,19.1z"/>
<path class="st1" d="M28.5,30.7l-1-3.1l-7.2,5.2L28.5,30.7z"/>
</svg>
