<?xml version="1.0" encoding="utf-8"?>
<!-- Generator: Adobe Illustrator 22.0.1, SVG Export Plug-In . SVG Version: 6.00 Build 0)  -->
<svg version="1.1" id="Layer_1" xmlns="http://www.w3.org/2000/svg" xmlns:xlink="http://www.w3.org/1999/xlink" x="0px" y="0px"
	 viewBox="0 0 160 50" style="enable-background:new 0 0 160 50;" xml:space="preserve">
<style type="text/css">
	.st0{fill:#45535E;}
	.st1{fill:#F8761F;}
</style>
<path class="st0" d="M14.7,10.8h4.7v10.4h9.9V10.8h4.7v25.7h-4.7V25.7h-9.9v10.6h-4.7V10.8z M48.8,28c0,2.1-1.7,3.9-3.9,3.9
	c-2.1,0-3.9-1.7-3.9-3.9V17h-4.4V28c0,4.6,3.7,8.3,8.3,8.3s8.3-3.7,8.3-8.3V17h-4.4L48.8,28 M65.7,17.1c-2-0.1-3.9,0.7-5.2,2.1v-8.5
	H56v15.7c0,5.9,4.3,9.9,9,9.9c5.2,0,10-4.1,10-9.6C75,21.3,70.7,17.1,65.7,17.1L65.7,17.1z M65.8,32.3c-3,0-5.3-2.5-5.3-5.5
	s2.3-5.5,5.3-5.5c2.6,0,4.9,2.5,4.9,5.5S68.4,32.3,65.8,32.3z M82.5,18.3c0-2.2,1.5-3,3.1-3c1.3,0,3.1,1,4.2,2.2l2.9-3.4
	c-1.5-2-4.4-3.3-6.8-3.3c-4.8,0-8.3,2.8-8.3,7.5c0,8.7,10.6,5.9,10.6,10.8c0,1.5-1.5,2.8-3.1,2.8c-2.6,0-3.5-1.3-4.7-2.6l-3.2,3.3
	c2.1,2.5,4.6,3.8,7.7,3.8c4.6,0,8.3-2.9,8.3-7.3C93.1,19.5,82.5,22.5,82.5,18.3 M104.9,17c-4.8,0-9,4.1-9,9.9v15.7h4.5v-8.5
	c1.5,1.5,3,2.1,5.2,2.1c5,0,9.3-4.2,9.3-9.6C114.9,21.1,110.2,17,104.9,17L104.9,17z M105.7,32.1c-3,0-5.3-2.5-5.3-5.5
	s2.3-5.5,5.3-5.5c2.6,0,4.9,2.5,4.9,5.5S108.2,32.1,105.7,32.1z M147.7,32.4c-2.6,0-3.4-1.1-3.4-2.9v-7.9h4.1v-3.9h-4.1v-5.2l-4.5,2
	v15.7c0,4.1,2.8,6.1,6.6,6.1c0.6,0,1.2,0,1.8-0.1l1.1-4.1l-1.6,0.1"/>
<path class="st1" d="M135.9,24c-0.9-1.5-2.1-2.7-3.6-3.5c-1.1-0.7-2.3-1.1-3.6-1.2v-4.7c1.3-0.5,2.2-1.8,2.1-3.2
	c0-2-1.6-3.5-3.5-3.5c-2,0-3.6,1.6-3.6,3.5c0,0,0,0,0,0c0,1.4,0.8,2.7,2.1,3.2v4.7c-1,0.2-2.1,0.5-3.1,1l-12.6-9.6
	c0.1-0.3,0.2-0.7,0.2-1c0-2.2-1.8-3.9-3.9-3.9c-2.2,0-3.9,1.8-3.9,3.9s1.8,3.9,3.9,3.9c0.7,0,1.4-0.2,2-0.6l0.8,0.6l11.3,8.2
	c-0.6,0.5-1.2,1.2-1.6,1.9c-0.9,1.4-1.4,3-1.5,4.7v0.3c0,1.2,0.2,2.3,0.6,3.4c0.3,0.9,0.8,1.8,1.5,2.5l-3.8,3.8
	c-1.6-0.6-3.3,0.2-3.9,1.8c-0.1,0.3-0.2,0.7-0.2,1.1c0,1.7,1.3,3,3,3c0,0,0,0,0,0c1.7,0,3-1.3,3-3c0,0,0,0,0,0c0-0.3,0-0.6-0.1-0.9
	l3.9-3.9c0.5,0.4,1.1,0.7,1.7,0.9c1.3,0.6,2.6,0.8,4,0.8h0.3c1.6,0,3.2-0.4,4.6-1.2c1.5-0.8,2.7-2,3.6-3.4c0.9-1.4,1.4-3.1,1.4-4.8
	v-0.1C137.1,27.1,136.7,25.5,135.9,24L135.9,24z M131.2,32.1c-1,1.2-2.3,1.9-3.6,1.9h-0.2c-0.8,0-1.5-0.2-2.3-0.6
	c-0.8-0.4-1.5-1.1-2-1.8c-0.5-0.8-0.8-1.6-0.8-2.5v-0.3c0-0.9,0.2-1.7,0.6-2.5c0.4-0.8,1.1-1.5,1.9-2c0.8-0.6,1.6-0.8,2.6-0.8h0.1
	c0.8,0,1.7,0.2,2.4,0.6c0.8,0.4,1.4,1,1.9,1.7c0.5,0.7,0.8,1.6,0.9,2.4l0,0.6C132.5,30,132.1,31.2,131.2,32.1L131.2,32.1z"/>
</svg>
