<svg height="512pt" viewBox="0 -99 512 511" width="512pt" xmlns="http://www.w3.org/2000/svg"><path d="m150.785156 84.703125-56.882812-56.894531c-6.246094-6.246094-6.246094-16.375 0-22.625 6.25-6.246094 16.378906-6.246094 22.625 0l56.878906 56.898437zm0 0" fill="#0ac1a7"/><path d="m361.214844 84.703125-22.621094-22.621094 56.878906-56.898437c6.246094-6.246094 16.375-6.246094 22.625 0 6.246094 6.25 6.246094 16.378906 0 22.625zm0 0" fill="#0ac1a7"/><path d="m432 233.394531h-352v-32c0-97.203125 78.796875-176 176-176s176 78.796875 176 176zm0 0" fill="#6ae5d3"/><path d="m176 137.394531h32v32h-32zm0 0" fill="#fff"/><path d="m304 137.394531h32v32h-32zm0 0" fill="#fff"/><g fill="#51dbca"><path d="m480 281.394531h32v32h-32zm0 0"/><path d="m80 281.394531h352c8.835938 0 16 7.160157 16 16 0 8.835938-7.164062 16-16 16h-352c-8.835938 0-16-7.164062-16-16 0-8.839843 7.164062-16 16-16zm0 0"/><path d="m0 281.394531h32v32h-32zm0 0"/><path d="m16 201.394531h480c8.835938 0 16 7.160157 16 16 0 8.835938-7.164062 16-16 16h-480c-8.835938 0-16-7.164062-16-16 0-8.839843 7.164062-16 16-16zm0 0"/></g></svg>