<?xml version="1.0" encoding="utf-8"?>
<!-- Generator: Adobe Illustrator 22.0.1, SVG Export Plug-In . SVG Version: 6.00 Build 0)  -->
<svg version="1.1" id="Layer_1" xmlns="http://www.w3.org/2000/svg" xmlns:xlink="http://www.w3.org/1999/xlink" x="0px" y="0px"
	 viewBox="0 0 160 50" style="enable-background:new 0 0 160 50;" xml:space="preserve">
<style type="text/css">
	.st0{fill:#3780FF;}
	.st1{fill:#38B137;}
	.st2{fill:#FA3913;}
	.st3{fill:#FCBD06;}
</style>
<g>
	<path class="st0" d="M31.1,3.4h1.2c4.1,0.1,8.1,1.7,11,4.6c-1.1,1.1-2.2,2.1-3.2,3.2c-1.6-1.5-3.6-2.6-5.7-3
		c-3.2-0.7-6.6-0.1-9.2,1.7c-2.9,1.9-4.8,5.1-5.3,8.5c-0.5,3.4,0.5,6.9,2.7,9.6c2.1,2.6,5.3,4.2,8.7,4.3c3.1,0.2,6.4-0.8,8.6-3
		c1.8-1.5,2.6-3.9,2.9-6.1c-3.7,0-7.4,0-11.1,0v-4.6h15.5c0.8,4.9-0.4,10.5-4.1,14c-2.5,2.5-5.9,4-9.5,4.2c-3.4,0.3-6.9-0.3-9.9-2
		c-3.6-1.9-6.5-5.2-7.9-9.1c-1.3-3.5-1.4-7.5-0.1-11.1c1.1-3.2,3.3-6.1,6.1-8.1C24.5,4.7,27.8,3.6,31.1,3.4z"/>
	<path class="st1" d="M120.3,4.5h4.8v31.8c-1.6,0-3.2,0-4.8,0C120.3,25.7,120.3,15.1,120.3,4.5L120.3,4.5z"/>
	<path class="st2" d="M57.8,15.5c2.9-0.6,6.1,0.1,8.5,1.8c2.2,1.6,3.7,4,4.2,6.7c0.6,3.1-0.2,6.5-2.2,8.9c-2.2,2.7-5.7,4.2-9.1,4
		c-3.2-0.2-6.2-1.8-8.1-4.3c-2.1-2.8-2.6-6.8-1.5-10.1C50.9,18.9,54.1,16.2,57.8,15.5 M58.5,19.8c-1.2,0.3-2.3,1-3.1,2
		c-2.2,2.6-2,6.8,0.4,9.2c1.4,1.4,3.4,2,5.3,1.6c1.8-0.3,3.3-1.5,4.1-3c1.5-2.6,1-6.3-1.2-8.4C62.5,19.8,60.4,19.3,58.5,19.8
		L58.5,19.8z"/>
	<path class="st3" d="M81.4,15.5c3.4-0.6,7,0.3,9.5,2.6c4.1,3.7,4.5,10.5,1,14.8c-2.1,2.7-5.5,4.1-8.9,4c-3.2-0.1-6.4-1.7-8.3-4.3
		c-2.2-2.9-2.6-6.9-1.4-10.3C74.6,18.8,77.8,16.2,81.4,15.5 M82.1,19.8c-1.2,0.3-2.3,1-3.1,2c-2.1,2.5-2,6.7,0.2,9.1
		c1.4,1.4,3.5,2.2,5.4,1.8c1.7-0.3,3.3-1.5,4.1-3c1.4-2.7,1-6.3-1.2-8.4C86.1,19.8,84,19.3,82.1,19.8L82.1,19.8z"/>
	<path class="st0" d="M101.4,16.8c2.6-1.6,6-2,8.7-0.7c0.9,0.4,1.6,1,2.3,1.7c0-0.6,0-1.2,0-1.8c1.5,0,3,0,4.5,0v19.6
		c0,3-0.8,6.1-2.9,8.3c-2.3,2.4-5.9,3.1-9.1,2.6c-3.4-0.5-6.4-3-7.8-6.2c1.3-0.6,2.7-1.2,4.1-1.8c0.8,1.8,2.4,3.4,4.3,3.7
		c2,0.4,4.3-0.1,5.6-1.8c1.4-1.7,1.4-4,1.3-6.1c-1,1-2.2,1.9-3.6,2.2c-3.1,0.9-6.5-0.2-8.9-2.3c-2.4-2.1-3.8-5.3-3.7-8.5
		C96.2,22.2,98.3,18.7,101.4,16.8 M106,19.7c-1.4,0.2-2.6,1-3.5,2c-2.1,2.5-2.1,6.5,0,8.9c1.2,1.4,3.1,2.2,5,2
		c1.8-0.2,3.4-1.3,4.2-2.8c1.5-2.6,1.2-6.1-0.8-8.4C109.8,20,107.8,19.3,106,19.7L106,19.7z"/>
	<path class="st2" d="M130.8,18c2.7-2.5,6.8-3.3,10.2-2c3.2,1.2,5.3,4.3,6.4,7.5c-4.8,2-9.6,4-14.5,6c0.7,1.3,1.7,2.4,3.1,2.9
		c1.9,0.7,4.2,0.4,5.9-0.8c0.6-0.5,1.2-1.1,1.6-1.8c1.2,0.8,2.4,1.6,3.7,2.4c-1.7,2.6-4.6,4.4-7.8,4.7c-3.5,0.4-7.2-0.9-9.4-3.6
		C126.2,29,126.6,21.8,130.8,18 M133.1,22.1c-0.8,1.1-1.1,2.4-1,3.7c3.2-1.3,6.4-2.7,9.7-4c-0.5-1.2-1.8-2-3.1-2.2
		C136.5,19.2,134.3,20.3,133.1,22.1z"/>
</g>
</svg>
